HIERARCHY
ROOT Hips
{
  OFFSET -125.086 92.215 135.881
  CHANNELS 6 Xposition Yposition Zposition Zrotation Xrotation Yrotation
  JOINT LeftUpLeg
  {
    OFFSET 8.64259 1.95398 -2.38835
    CHANNELS 3 Zrotation Xrotation Yrotation
    JOINT LeftLeg
    {
      OFFSET 43.7702 0 0
      CHANNELS 3 Zrotation Xrotation Yrotation
      JOINT LeftFoot
      {
        OFFSET 40.6238 0 0
        CHANNELS 3 Zrotation Xrotation Yrotation
        JOINT LeftToeBase
        {
          OFFSET 12.7242 0 0
          CHANNELS 3 Zrotation Xrotation Yrotation
          End Site
          {
            OFFSET 0 0 0
          }
        }
      }
    }
  }
  JOINT RightUpLeg
  {
    OFFSET -8.2249 1.95398 -2.59336
    CHANNELS 3 Zrotation Xrotation Yrotation
    JOINT RightLeg
    {
      OFFSET 43.5653 0 0
      CHANNELS 3 Zrotation Xrotation Yrotation
      JOINT RightFoot
      {
        OFFSET 40.6238 0 0
        CHANNELS 3 Zrotation Xrotation Yrotation
        JOINT RightToeBase
        {
          OFFSET 12.7242 0 0
          CHANNELS 3 Zrotation Xrotation Yrotation
          End Site
          {
            OFFSET 0 0 0
          }
        }
      }
    }
  }
  JOINT Spine
  {
    OFFSET 0.165834 0.87714 6.61349
    CHANNELS 3 Zrotation Xrotation Yrotation
    JOINT Spine1
    {
      OFFSET 7.38963 1.71661e-005 0
      CHANNELS 3 Zrotation Xrotation Yrotation
      JOINT Spine2
      {
        OFFSET 11.9445 1.14441e-005 0
        CHANNELS 3 Zrotation Xrotation Yrotation
        JOINT Spine3
        {
          OFFSET 14.7254 4.19617e-005 0
          CHANNELS 3 Zrotation Xrotation Yrotation
          JOINT Spine4
          {
            OFFSET 10.9679 0 0
            CHANNELS 3 Zrotation Xrotation Yrotation
            JOINT RightShoulder
            {
              OFFSET 2.46616 -1.6653 3.69651
              CHANNELS 3 Zrotation Xrotation Yrotation
              JOINT RightArm
              {
                OFFSET 13.0012 0 0
                CHANNELS 3 Zrotation Xrotation Yrotation
                JOINT RightForeArm
                {
                  OFFSET 28.7848 1.52588e-005 0
                  CHANNELS 3 Zrotation Xrotation Yrotation
                  JOINT RightHand
                  {
                    OFFSET 26.5688 1.52588e-005 0
                    CHANNELS 3 Zrotation Xrotation Yrotation
                    End Site
                    {
                      OFFSET 0 0 0
                    }
                  }
                }
              }
            }
            JOINT LeftShoulder
            {
              OFFSET 2.38034 -1.29275 -3.7523
              CHANNELS 3 Zrotation Xrotation Yrotation
              JOINT LeftArm
              {
                OFFSET 16.3182 6.10352e-005 0
                CHANNELS 3 Zrotation Xrotation Yrotation
                JOINT LeftForeArm
                {
                  OFFSET 27.0901 0 0
                  CHANNELS 3 Zrotation Xrotation Yrotation
                  JOINT LeftHand
                  {
                    OFFSET 24.5451 1.52588e-005 0
                    CHANNELS 3 Zrotation Xrotation Yrotation
                    End Site
                    {
                      OFFSET 0 0 0
                    }
                  }
                }
              }
            }
            JOINT Neck
            {
              OFFSET 5.0226 -0.0266342 0
              CHANNELS 3 Zrotation Xrotation Yrotation
              JOINT Head
              {
                OFFSET 6.69363 2.86102e-005 0
                CHANNELS 3 Zrotation Xrotation Yrotation
                End Site
                {
                  OFFSET 0 0 0
                }
              }
            }
          }
        }
      }
    }
  }
}
MOTION
Frames:	18
Frame Time:	0.0416667
15.4164 79.5645 22.5716 -126.479 58.096 -70.397 179.682 28.1791 97.1526 -69.8358 13.4039 6.00014 54.6862 2.42803 3.51621 64.9275 0.0608373 15.5243 179.272 36.984 93.3565 -75.1878 -10.8368 -3.13627 59.7277 -0.720731 9.5776 32.5641 -0.284253 -4.72715 -0.995442 10.2035 -89.3049 6.47545 -1.69332 1.42949 -5.19526 -1.62877 1.50262 -27.7365 -2.04462 0.854398 -7.72388 -2.04462 0.854395 109.247 -48.9279 -70.9841 16.3082 -8.66191 -10.1739 3.55834 -20.0251 -20.0243 -7.21004 -0.186255 -2.33362 -77.906 -47.4097 96.7689 -16.8726 -10.1015 -35.9385 9.92446 32.0385 -21.4928 6.08025 -0.589007 -11.1076 -1.81837 -14.2704 15.6575 -8.83573 -14.8988 -27.5308 
9.6647 80.2525 12.6223 -117.444 60.28 -78.1951 -179.994 27.9398 96.7009 -48.5829 22.3762 6.37957 52.9253 -0.557902 -3.42669 70.7261 1.11983 18.2612 175.541 37.2054 93.7536 -80.7633 -12.7176 -1.96223 59.9926 -2.94704 2.17671 42.3253 -2.02458 3.14775 -0.970798 9.95672 -89.4768 6.97385 -1.71471 1.11093 -4.69644 -1.66416 1.18531 -27.2401 -1.96931 0.544076 -7.22747 -1.96933 0.544075 109.698 -49.6331 -70.3812 19.1316 -8.33775 -10.5568 -0.977514 -30.7418 -21.8774 -7.72507 -0.208601 -2.19387 -78.2769 -46.3651 96.1759 -15.4447 -7.01167 -34.4275 7.93221 24.7081 -26.7357 9.35671 -0.754423 -10.804 0.366493 -14.266 15.4019 -7.96542 -15.2803 -28.3469 
3.58783 79.0547 3.54683 -126.163 68.4461 -73.124 -176.916 20.5698 93.6889 -54.7008 17.3173 5.03663 61.7397 5.113 4.5855 65.7463 0.372236 16.632 179.805 40.9166 88.1091 -91.4923 -14.3956 -3.84967 49.1698 3.04785 10.0412 40.4808 -1.6887 8.75491 -0.857985 10.3371 -88.9275 6.20342 -1.26101 2.14704 -5.46878 -1.16531 2.20041 -27.9992 -1.84788 1.66894 -7.98657 -1.84788 1.66894 112.433 -52.8805 -66.7546 20.7365 -12.9744 -9.57178 0.140168 -18.4542 -29.9011 -7.55547 -0.189005 -2.72344 -78.2656 -46.3527 96.1921 -16.3266 -7.07577 -37.9691 8.63762 20.6074 -30.5532 7.89415 -0.642553 -10.5112 2.48567 -12.3623 11.5694 -6.00312 -13.5672 -24.0089 
-0.148997 79.1984 -5.06581 -117.772 72.2251 -81.9767 -175.336 16.292 91.9854 -53.9721 16.8003 4.42316 66.7085 9.24143 8.33625 69.5161 1.06318 18.6656 177.391 50.7773 86.0066 -90.2465 -9.9504 -3.2025 58.1362 -0.906451 11.3299 51.2955 -2.85764 6.25089 -1.2257 10.2016 -89.0442 6.48088 -2.04234 1.95217 -5.19019 -1.95446 2.04013 -27.7317 -2.53455 1.24804 -7.71905 -2.53455 1.24803 111.969 -53.4406 -67.5433 27.179 -12.389 -5.9968 -1.03572 -13.6015 -35.3752 -4.1915 -0.0623744 -3.88858 -78.7655 -46.2627 95.3976 -17.9012 -4.49942 -48.574 13.7393 19.7693 -42.1427 7.79768 -0.743936 -11.7058 7.79312 -10.5595 11.3044 -5.27674 -12.3859 -22.3526 
-2.21208 82.2917 -16.9826 -103.107 77.7715 -94.1509 -174.831 5.16577 94.0886 -41.8354 16.6539 5.94598 65.4539 7.67189 3.5258 72.0806 2.7044 23.8507 165.871 48.6294 92.1941 -76.0164 -7.48035 1.16565 58.9148 -1.31557 8.19296 62.6119 -3.89336 6.85356 -1.01384 9.72824 -89.8775 7.42052 -1.97137 0.337177 -4.249 -1.95462 0.423639 -26.7961 -1.98154 -0.271129 -6.78342 -1.98153 -0.271135 107.357 -50.6457 -74.137 31.5662 -12.2149 -3.46965 4.74053 -6.4421 -29.7488 -6.60844 -0.115493 -3.40835 -80.0505 -44.0375 93.2541 -21.1726 -1.05229 -46.1628 20.522 21.86 -51.9476 9.07426 -0.837489 -11.8124 9.90001 -9.1362 16.9104 -6.51021 -12.201 -22.1655 
-2.52445 83.8317 -31.0948 -61.8379 86.5139 -134.626 -179.514 7.73215 92.5753 -58.6224 11.9123 6.73761 50.7655 -0.677704 -1.56248 68.8482 1.32099 19.4285 165.181 37.0755 93.9854 -69.9849 -9.09688 3.69222 62.156 -2.94505 4.50237 47.9532 -2.78803 3.03491 -0.33182 9.63869 -90.2436 7.59463 -0.76812 -0.442519 -4.07615 -0.786852 -0.408283 -26.6118 -0.599619 -0.65292 -6.59914 -0.599621 -0.652917 107.768 -52.8267 -73.7342 27.1447 -11.2171 -12.3543 10.045 3.7136 -26.2109 -13.2675 -0.183709 -3.77517 -78.7254 -44.2018 95.4228 -23.9509 -5.41894 -32.7076 21.5929 30.9861 -41.0817 7.55087 -0.76172 -12.0043 15.2811 -7.84451 7.38104 -10.3885 -8.91629 -12.2741 
-2.45636 83.2854 -43.6164 59.895 78.6692 108.764 178.079 26.8358 91.5111 -93.5536 12.2232 5.07669 54.3382 4.04334 12.9742 58.353 -0.694241 13.4463 172.452 28.1002 97.209 -69.5113 -13.1234 1.4247 66.4514 -3.0423 9.80598 49.2935 -2.88459 3.40131 0.491187 10.19 -90.8358 6.49759 0.626823 -1.67365 -5.17424 0.552565 -1.69961 -27.7043 1.10079 -1.40798 -7.69164 1.10079 -1.40798 107.699 -52.3348 -73.793 25.4756 -7.51326 -32.4905 5.73195 0.488964 -37.4205 -14.6314 -0.31248 -2.79897 -77.9877 -43.4119 96.6249 -19.1477 -16.6117 -10.7198 13.5112 47.6068 -17.2349 6.5909 -0.369438 -8.12587 22.545 -5.21628 -0.808362 -12.519 -4.56021 -1.53507 
-1.52416 84.1429 -56.5334 55.8163 68.8226 113.947 174.785 52.9421 91.4546 -99.412 11.7928 4.35306 59.1943 7.46791 13.266 57.5407 -0.386635 15.1112 175.528 17.3938 95.9202 -58.7242 -19.3627 0.137399 72.1727 -5.88436 8.65407 46.9788 -2.51362 5.11637 1.01247 10.0565 -90.868 6.76048 1.65162 -1.77661 -4.91079 1.57186 -1.84757 -27.4485 2.10913 -1.19809 -7.43586 2.10912 -1.19807 104.912 -43.6708 -77.5049 25.9372 -6.84491 -47.7253 -3.96616 -3.72615 -62.4788 -14.2444 -0.204758 -3.57055 -78.6613 -40.9765 95.4677 -10.102 -16.8302 16.0017 4.48433 60.1493 -9.27929 7.22315 -0.461465 -8.79017 21.1008 -4.30726 -2.7708 -9.02878 -3.4419 3.41183 
3.45318 87.637 -72.1908 53.8393 62.3965 109.213 -172.112 58.7687 80.8756 -70.745 11.7671 0.21461 60.9116 5.80398 6.03752 67.0294 0.217919 15.7277 178.389 1.75604 87.6688 -35.4664 -19.9958 -6.0325 57.4169 1.46939 17.431 47.4634 -2.13091 11.38 1.5387 9.80026 -89.6132 7.26484 3.23953 0.612452 -4.40215 3.26336 0.469126 -26.9635 2.90559 1.55848 -6.95081 2.9056 1.55849 104.794 -39.0807 -77.4193 21.1135 -7.42177 -46.7353 -11.3919 -2.13727 -79.4109 -12.1083 0.0387538 -5.74887 -80.9331 -38.8825 91.4597 -12.0574 -15.0522 20.5664 1.12826 59.9465 -7.46383 5.74152 -0.479549 -9.85061 17.485 -5.50325 3.07609 -9.76153 -5.91963 -5.86832 
10.167 88.1265 -89.368 50.8578 66.2342 114.204 -169.128 49.1355 81.5869 -55.8997 18.1781 -3.66698 58.8706 3.09895 4.70564 69.8353 0.36372 15.2776 178.638 -0.281121 90.0644 -47.7259 -21.5484 -3.4536 29.9876 9.24479 27.1466 3.50614 6.86965 -9.71088 0.807058 9.82686 -89.4598 7.21126 1.8442 0.980031 -4.4587 1.88554 0.897899 -26.9982 1.46441 1.48902 -6.98554 1.46441 1.48901 106.129 -46.121 -75.672 14.8814 -17.2899 -38.1751 -8.66412 -5.18567 -66.8629 -10.8329 0.0688898 -6.11438 -77.957 -46.5342 96.6894 -15.5549 -9.63632 -4.63797 -1.49648 48.9764 -7.29471 7.05674 -0.630388 -10.9135 12.8085 -5.65859 -1.73664 -8.89277 -5.02829 -1.51128 
17.4797 86.3265 -105.884 55.5292 73.5944 107.521 -175.25 29.0804 80.7788 -54.0906 21.1178 -0.702361 68.0481 10.3495 11.2699 63.1981 -0.624593 12.2942 173.502 22.8169 95.3748 -101.2 -17.605 -3.2453 41.6475 6.15864 12.3282 16.811 3.29809 -7.12143 -0.0350797 10.1474 -89.1 6.57125 0.313434 1.75071 -5.10081 0.390182 1.73523 -27.626 -0.227112 1.76399 -7.61336 -0.227104 1.76399 109.651 -53.5803 -71.0122 20.7387 -15.9227 -19.1579 -11.1504 -22.6783 -45.1956 -7.36849 -0.137687 -3.41547 -76.2013 -49.5033 99.39 -18.4077 -0.459844 -34.4642 6.13162 29.2431 -27.2119 10.7566 -0.938675 -11.691 6.99782 -5.40835 -1.62379 -3.1286 -4.9842 -4.23848 
25.169 86.7079 -122.625 36.96 76.6119 126.689 178.673 13.3616 83.7658 -42.7754 26.7651 6.05539 67.8861 10.1623 13.7256 70.1043 1.14662 18.7865 176.485 55.3065 88.4598 -111.014 -10.532 -3.98958 48.408 2.5664 11.4436 37.201 -1.11011 -5.14836 -0.776523 9.51964 -89.3567 7.83827 -1.26955 1.34753 -3.83289 -1.20901 1.40209 -26.3697 -1.61585 0.903681 -6.35706 -1.61586 0.903681 109.349 -53.5862 -71.4549 27.12 -13.5211 11.9929 -12.3194 -24.43 -44.7471 -7.79036 -0.300179 -0.72762 -77.9775 -44.8137 96.6391 -21.4374 4.90145 -54.9107 13.4931 13.0855 -57.7605 11.7426 -1.1666 -13.0361 10.214 -4.22559 2.67331 -6.35351 -4.5505 -8.06208 
34.7359 91.6116 -142.141 42.8995 72.9509 130.411 -176.239 -1.29671 95.662 -28.3399 22.1089 10.3625 42.1529 -5.70732 -12.55 69.0095 -2.00076 6.05588 173.89 61.3186 93.422 -73.9523 -10.2866 -1.02884 56.7567 -0.00386869 8.99929 53.2922 -3.83232 -0.132334 -0.980515 9.37348 -90.546 8.11723 -2.19655 -0.952277 -3.55214 -2.23634 -0.854651 -26.0954 -1.80882 -1.56852 -6.08271 -1.80882 -1.56852 105.1 -49.5108 -77.5596 31.8291 -16.3295 27.5528 -3.92697 -14.8766 -42.9779 -7.69249 -0.0801342 -4.23849 -77.0001 -43.6034 98.2464 -20.0659 4.02152 -48.7663 19.0452 7.06686 -76.8515 17.4439 -1.4575 -12.1841 14.6244 -1.85111 -3.95829 -10.0935 -0.90693 2.84637 
44.2674 91.9573 -162.215 62.5635 68.6654 111.041 175.947 0.0775811 89.9777 -64.9558 19.1827 9.81018 41.789 -5.43435 -1.07996 60.1636 -0.449091 13.2859 174.438 50.8382 90.607 -42.2199 -12.9356 3.28395 52.0428 3.06067 9.93912 60.3934 -5.1043 -1.42157 -0.867713 9.87528 -90.3617 7.11717 -1.88813 -0.633064 -4.55254 -1.91416 -0.549331 -27.0947 -1.61058 -1.17136 -7.08206 -1.61057 -1.17136 106.665 -52.7182 -75.3884 28.8588 -14.5843 17.5697 1.96429 -7.8708 -39.5101 -3.82079 -0.0368575 -4.68695 -76.9482 -45.345 98.3006 -21.201 2.38673 -34.6215 14.4284 16.7337 -53.0039 11.052 -0.960425 -11.7787 16.8135 -0.703994 -9.5315 -12.4949 1.30984 9.81733 
53.9119 88.7146 -182.272 79.0083 62.5322 102.018 174.531 17.0361 95.2042 -110.087 12.3725 4.45208 43.8185 -2.83807 0.69898 53.7517 -1.42149 7.21866 168.46 38.926 99.8271 -55.2928 -17.5704 7.1531 62.6802 -2.73074 3.43354 38.3771 -1.46163 -2.53293 -0.285501 10.1767 -90.9006 6.51273 -0.953492 -1.73095 -5.15885 -1.02875 -1.68733 -27.6861 -0.389273 -1.9374 -7.67346 -0.389267 -1.93741 110.736 -55.1133 -69.6305 23.0087 -12.6032 -1.68587 0.814881 -5.89072 -43.7546 -5.51596 -0.0453076 -4.87175 -75.1751 -49.4123 100.957 -23.2092 -4.51741 -21.1068 9.10499 44.5047 -21.4443 8.50853 -0.807767 -11.8377 15.0616 0.878297 -11.4799 -10.2576 3.05168 15.8953 
64.8338 86.9262 -202.344 78.571 56.2622 104.193 168.4 43.9597 100.034 -117.512 10.9594 3.59491 46.2674 -1.07949 3.49993 52.882 -1.32702 7.55409 173.094 23.364 99.7635 -58.3594 -19.9717 5.2231 77.7208 -12.1936 -2.27714 46.348 -2.88815 -1.92793 0.290767 9.39 -90.9692 8.09026 0.155801 -1.92678 -3.58213 0.0708741 -1.93178 -26.107 0.727585 -1.79097 -6.09434 0.727582 -1.79096 110.089 -52.2846 -70.1691 22.6705 -11.7885 -13.7126 -0.647913 -2.55726 -57.1356 -7.74314 -0.09975 -3.89413 -73.1099 -51.4806 103.951 -17.4528 -10.0917 -2.81144 1.66704 69.815 -10.4127 7.59263 -0.559775 -9.47687 16.3038 0.980055 -11.1202 -13.7787 2.62761 16.6683 
77.4583 90.3647 -223.311 81.6803 53.208 99.8407 172.673 51.7901 97.0642 -82.9356 12.1918 4.86049 49.7951 -0.484778 8.36214 55.9358 -1.58364 5.94829 178.863 0.853429 97.7565 -42.3547 -16.139 -1.18533 61.8 -0.322408 12.552 56.8342 -3.70935 4.3615 0.955897 8.77986 -90.5067 9.32193 1.67881 -1.1272 -2.3485 1.62755 -1.20001 -24.891 1.93994 -0.570414 -4.8784 1.93992 -0.570418 108.603 -48.7383 -71.9737 20.7641 -17.5105 -12.6064 -4.666 -1.24951 -69.0701 -7.15489 0.0847958 -7.05658 -75.9623 -47.9027 99.8012 -15.4753 -10.9502 8.19787 -9.45801 78.627 -0.0722588 20.3026 -0.31138 -5.4713 8.77086 0.197639 -8.48475 -12.144 1.25483 10.4459 
89.3669 93.0181 -243.755 89.9997 50.7351 92.4951 -178.166 38.7569 93.4943 -29.2199 12.421 1.14106 44.3283 -4.65356 2.79664 61.0486 -2.65315 0.231281 -179.145 -8.21809 96.0821 -58.8026 -19.111 -4.64833 48.6359 3.73801 9.44368 43.7992 -2.79366 -8.89625 1.47084 8.76923 -90.0229 9.34464 2.9228 -0.258846 -2.32305 2.90858 -0.387342 -24.8842 2.86539 0.632295 -4.87157 2.86539 0.632304 110.316 -50.5839 -69.5705 17.3515 -22.5706 -8.9116 -4.38109 -0.595825 -69.2912 -5.03666 0.112483 -8.57295 -77.9941 -43.164 96.6008 -15.8303 -5.97686 11.6844 -4.5343 65.1129 -9.22668 23.1666 -0.635518 -7.63673 4.64903 -0.873965 -9.76165 -15.1809 0.283959 6.05644 
